<svg width="1024" height="1024" viewBox="0 0 1024 1024" fill="none" xmlns="http://www.w3.org/2000/svg">
<rect width="193.804" height="73.3265" transform="matrix(-0.707107 -0.707107 -0.707107 0.707107 716.571 431.493)" fill="#1E78FF"/>
<path d="M341.917 430.793L527.86 244.849C556.496 216.214 602.924 216.214 631.56 244.849L393.767 482.643L341.917 430.793Z" fill="url(#paint0_linear_1024_6652)"/>
<path d="M341.917 630.124V305.844C341.917 265.347 374.746 232.517 415.243 232.517V630.124H341.917Z" fill="url(#paint1_linear_1024_6652)"/>
<path d="M240 628.954H645.391V702.28H313.326C272.829 702.28 240 669.451 240 628.954Z" fill="url(#paint2_linear_1024_6652)"/>
<path d="M716.797 431.586V710.673C716.797 751.171 683.967 784 643.47 784V431.586H716.797Z" fill="url(#paint3_linear_1024_6652)"/>
<defs>
<linearGradient id="paint0_linear_1024_6652" x1="631.56" y1="244.849" x2="393.767" y2="482.643" gradientUnits="userSpaceOnUse">
<stop stop-color="#AFCFFF"/>
<stop offset="1" stop-color="#1B76FF"/>
</linearGradient>
<linearGradient id="paint1_linear_1024_6652" x1="415.243" y1="232.517" x2="415.244" y2="630.124" gradientUnits="userSpaceOnUse">
<stop stop-color="#AFCFFF"/>
<stop offset="1" stop-color="#1B76FF"/>
</linearGradient>
<linearGradient id="paint2_linear_1024_6652" x1="442.696" y1="702.042" x2="240" y2="702.28" gradientUnits="userSpaceOnUse">
<stop stop-color="#1E78FF"/>
<stop offset="1" stop-color="#A9CCFF"/>
</linearGradient>
<linearGradient id="paint3_linear_1024_6652" x1="643.47" y1="784" x2="639.746" y2="528.779" gradientUnits="userSpaceOnUse">
<stop stop-color="#AFCFFF"/>
<stop offset="1" stop-color="#1E78FF"/>
</linearGradient>
</defs>
</svg>
